:SAMPLES-PER-SECOND 30
:FULLY-SPECIFIED
:DEGREES
510
root  -3.88791 40.6158 -0.779915 -7.54143 -62.3094 6.88359
RightUpLeg  8.27367 -4.84009 -1.29977
RightLeg  0.925513 -43.7599 0.687005
RightFoot  -6.09667 -0.253647 4.22766
RightToes  -3.13006e-008 1.75238e-005 3.56266e-009
Spine  -9.22979 3.46 4.76811
Spine1  11.4974 6.80002 -11.4955
HEad  -0.546887 -12.9481 0.171161
LeftShoulder1  4.3725 -8.7991 -29.5216
LeftArm  -8.65332 -12.7207 -49.8066
LeftForeArm  126.699 -79.6319 -113.939
LeftHand  -0.465469 -0.208811 9.73642
RightShoulder  4.55419 10.421 26.67
RightArm  -6.86037 44.0358 52.6776
RightForeArm  27.9042 65.5128 22.5871
RightHand  -1.03775 7.20197 -9.87963
LeftUpLeg  -1.32309 -1.83421 0.722098
LeftLeg  4.11221 -11.211 0.0186602
LeftFoot  -1.64113 0.429109 -4.94044
LeftToes  4.76866e-008 1.46233e-008 1.30548e-009
511
root  -3.88449 40.6232 -0.684814 -8.15733 -63.172 7.25406
RightUpLeg  8.4053 -5.03569 -1.69417
RightLeg  1.41643 -42.4952 0.358914
RightFoot  -6.15887 -0.263451 4.38518
RightToes  -3.13006e-008 1.75238e-005 3.56266e-009
Spine  -8.39006 3.90057 5.72636
Spine1  10.6452 7.33837 -12.3671
HEad  -0.802101 -13.9593 -0.294245
LeftShoulder1  4.43071 -8.88725 -29.7468
LeftArm  -8.27939 -12.2539 -50.4061
LeftForeArm  126.28 -79.4995 -114.775
LeftHand  -0.513651 -0.654342 9.97982
RightShoulder  4.39838 10.6061 25.0659
RightArm  -5.78661 49.1663 56.8126
RightForeArm  20.4825 59.0298 17.1104
RightHand  -0.955412 6.69716 -9.50041
LeftUpLeg  -0.741712 -1.69534 0.574072
LeftLeg  3.9169 -10.4202 -0.0412994
LeftFoot  -1.68797 0.400249 -4.61878
LeftToes  4.76866e-008 1.46233e-008 1.30548e-009
512
root  -3.86183 40.6311 -0.568337 -8.23323 -64.3443 7.36958
RightUpLeg  8.25565 -5.07303 -1.91207
RightLeg  1.46791 -41.3664 0.325283
RightFoot  -6.05724 -0.262214 4.37622
RightToes  -3.13006e-008 1.75238e-005 3.56266e-009
Spine  -8.79651 5.10599 8.23538
Spine1  11.1274 9.12129 -15.1417
HEad  -1.19096 -15.5821 0.179978
LeftShoulder1  4.53614 -9.43172 -29.0358
LeftArm  -7.29532 -12.9716 -51.5664
LeftForeArm  121.054 -79.975 -108.605
LeftHand  -0.479165 -0.740274 9.18649
RightShoulder  4.2362 10.5545 23.9726
RightArm  -4.78933 53.3752 58.6044
RightForeArm  15.0532 52.8919 13.6814
RightHand  -0.888858 5.75066 -9.5383
LeftUpLeg  -0.636319 -1.69294 0.497695
LeftLeg  4.01922 -9.22266 0.000201497
LeftFoot  -1.83892 0.366571 -4.27753
LeftToes  4.76866e-008 1.46233e-008 1.30548e-009
513
root  -3.87159 40.6491 -0.453193 -8.20433 -65.4474 7.41531
RightUpLeg  8.3014 -4.99576 -2.04254
RightLeg  1.05166 -40.279 0.561033
RightFoot  -5.81064 -0.268127 4.48423
RightToes  -3.13006e-008 1.75238e-005 3.56266e-009
Spine  -8.2278 6.12841 9.93516
Spine1  10.1464 10.3576 -16.9486
HEad  -0.812251 -17.6622 0.36792
LeftShoulder1  4.6193 -9.65304 -29.0809
LeftArm  -6.18109 -13.2226 -51.7339
LeftForeArm  120.071 -80.3585 -104.191
LeftHand  -0.530161 -0.957626 9.82847
RightShoulder  3.93476 10.1123 22.6598
RightArm  -1.76848 55.9484 59.5471
RightForeArm  13.2057 48.2343 11.5893
RightHand  -0.565869 4.66501 -6.77468
LeftUpLeg  -0.439196 -1.49131 0.535248
LeftLeg  3.90443 -8.30673 -0.0412649
LeftFoot  -1.94529 0.349967 -4.11627
LeftToes  4.76866e-008 1.46233e-008 1.30548e-009
514
root  -3.90034 40.6609 -0.345155 -8.17924 -66.0345 7.46808
RightUpLeg  8.45769 -4.95261 -2.17256
RightLeg  0.575744 -39.677 0.816505
RightFoot  -5.62062 -0.274631 4.60848
RightToes  -3.13006e-008 1.75238e-005 3.56266e-009
Spine  -8.45301 6.6328 10.3744
Spine1  10.2309 10.8618 -17.1413
HEad  -1.27242 -18.975 1.01378
LeftShoulder1  4.60765 -9.49045 -29.4365
LeftArm  -6.07607 -13.6268 -51.5256
LeftForeArm  122.907 -80.4489 -104.65
LeftHand  -0.468533 -0.787082 8.93413
RightShoulder  3.58175 9.77148 20.6341
RightArm  2.3172 57.5352 60.2973
RightForeArm  13.7154 45.8015 10.5527
RightHand  -0.173534 4.20605 -2.38869
LeftUpLeg  -0.294689 -1.33446 0.52524
LeftLeg  3.82762 -7.85502 -0.125048
LeftFoot  -2.07083 0.342242 -4.06761
LeftToes  4.76866e-008 1.46233e-008 1.30548e-009
515
root  -3.90796 40.6711 -0.241164 -8.09354 -66.3779 7.54771
RightUpLeg  8.35753 -4.92177 -2.32119
RightLeg  0.527849 -39.2466 0.803056
RightFoot  -5.5191 -0.280049 4.72398
RightToes  -3.13006e-008 1.75238e-005 3.56266e-009
Spine  -8.22025 6.87459 10.8933
Spine1  9.45685 11.1976 -18.1759
HEad  -1.87272 -21.0404 2.60793
LeftShoulder1  4.44253 -9.31819 -28.6093
LeftArm  -6.23434 -13.6891 -52.1153
LeftForeArm  124.967 -80.5059 -105.087
LeftHand  -0.457707 -0.818427 8.69177
RightShoulder  3.56774 9.90354 20.2282
RightArm  3.9184 57.4041 57.6879
RightForeArm  13.459 46.4985 10.8648
RightHand  -0.00174628 3.95329 -0.312304
LeftUpLeg  -0.280173 -1.34249 0.423206
LeftLeg  3.70494 -7.47225 -0.130054
LeftFoot  -2.16089 0.337025 -4.03624
LeftToes  4.76866e-008 1.46233e-008 1.30548e-009
516
root  -3.91598 40.6655 -0.162744 -7.95869 -66.0805 7.54434
RightUpLeg  8.32866 -4.90752 -2.37966
RightLeg  0.400645 -39.6776 0.801129
RightFoot  -5.51904 -0.280289 4.76827
RightToes  -3.13006e-008 1.75238e-005 3.56266e-009
Spine  -8.4784 6.92218 10.7328
Spine1  9.51501 11.4272 -18.8505
HEad  -3.33242 -22.4429 5.27285
LeftShoulder1  4.23414 -9.23345 -27.1623
LeftArm  -6.58619 -14.0531 -53.1302
LeftForeArm  126.003 -80.4698 -106.012
LeftHand  -0.429986 -1.13622 7.79111
RightShoulder  3.68481 9.87955 21.2144
RightArm  1.09889 56.3551 53.1243
RightForeArm  14.9644 49.5689 12.0767
RightHand  0.0123953 4.55649 -0.143551
LeftUpLeg  -0.434509 -1.57628 0.201544
LeftLeg  3.80763 -7.53518 -0.0354327
LeftFoot  -2.25038 0.323141 -3.89318
LeftToes  4.76866e-008 1.46233e-008 1.30548e-009
517
root  -3.93135 40.6416 -0.103064 -7.17317 -64.9645 6.88821
RightUpLeg  8.29777 -4.84288 -2.14492
RightLeg  0.474036 -40.8955 0.73697
RightFoot  -5.58863 -0.28789 4.96864
RightToes  -3.13006e-008 1.75238e-005 3.56266e-009
Spine  -9.20494 6.49961 8.61352
Spine1  10.2911 10.6648 -16.4115
HEad  -5.67187 -23.7242 7.87546
LeftShoulder1  4.1097 -8.76834 -27.4153
LeftArm  -6.82855 -14.5717 -52.9949
LeftForeArm  130.338 -80.1891 -110.738
LeftHand  -0.420161 -1.15089 7.6114
RightShoulder  3.81486 10.0561 21.8583
RightArm  -5.35088 54.8457 48.2233
RightForeArm  18.6367 53.4197 13.688
RightHand  -0.0867806 4.71132 -1.28511
LeftUpLeg  -1.07865 -1.92057 0.129952
LeftLeg  4.58724 -8.38324 0.0107479
LeftFoot  -2.50444 0.286933 -3.51989
LeftToes  4.76866e-008 1.46233e-008 1.30548e-009
518
root  -3.92754 40.6104 -0.0493175 -6.231 -63.2961 6.02313
RightUpLeg  8.23707 -4.83243 -1.82423
RightLeg  0.799245 -42.6225 0.559522
RightFoot  -5.65632 -0.299481 5.25179
RightToes  -3.13006e-008 1.75238e-005 3.56266e-009
Spine  -8.65388 5.91659 6.51439
Spine1  9.66128 9.63703 -14.1385
HEad  -8.08795 -25.9818 11.1747
LeftShoulder1  4.12862 -8.68433 -27.8132
LeftArm  -7.40454 -13.8127 -52.718
LeftForeArm  139.198 -79.5376 -119.177
LeftHand  -0.422255 -1.77359 6.98853
RightShoulder  3.8505 9.8567 22.5907
RightArm  -13.9768 53.2859 43.1827
RightForeArm  21.6507 56.2244 15.0412
RightHand  -0.301508 5.01498 -3.66749
LeftUpLeg  -1.89128 -2.54748 0.085808
LeftLeg  5.59221 -9.55047 0.0539813
LeftFoot  -2.86446 0.279682 -3.54128
LeftToes  4.76866e-008 1.46233e-008 1.30548e-009
519
root  -3.8878 40.5805 0.000837457 -5.07072 -61.6697 5.07637
RightUpLeg  7.93228 -4.83458 -1.46995
RightLeg  1.19092 -44.2106 0.440425
RightFoot  -5.7056 -0.309531 5.49411
RightToes  -3.13006e-008 1.75238e-005 3.56266e-009
Spine  -7.71592 5.37288 5.267
Spine1  8.6861 8.80736 -12.9274
HEad  -10.8087 -27.363 14.6925
LeftShoulder1  4.05636 -8.48665 -27.7682
LeftArm  -7.81864 -12.5829 -52.2821
LeftForeArm  145.978 -78.6133 -126.61
LeftHand  -0.550571 -2.77562 8.06658
RightShoulder  3.7328 9.45421 22.567
RightArm  -23.7832 52.9099 39.3139
RightForeArm  24.0982 56.68 15.1108
RightHand  -0.51138 5.97682 -5.56058
LeftUpLeg  -2.94285 -3.29995 0.167281
LeftLeg  6.64207 -10.4998 -0.0145664
LeftFoot  -3.17493 0.265372 -3.45013
LeftToes  4.76866e-008 1.46233e-008 1.30548e-009
520
root  -3.83214 40.5595 0.0415341 -3.92085 -60.084 4.27609
RightUpLeg  7.51875 -4.69554 -1.03698
RightLeg  1.27016 -46.0607 0.412388
RightFoot  -5.60285 -0.318947 5.59614
RightToes  -3.13006e-008 1.75238e-005 3.56266e-009
Spine  -6.6824 5.04623 3.90305
Spine1  7.59699 8.13609 -11.5183
HEad  -14.4036 -28.9074 18.5819
LeftShoulder1  4.05058 -8.41959 -27.9142
LeftArm  -8.26673 -10.8858 -51.2273
LeftForeArm  150.709 -77.2619 -133.666
LeftHand  -0.529463 -2.94331 7.60155
RightShoulder  3.36707 8.66322 21.38
RightArm  -33.56 53.6528 36.7046
RightForeArm  28.0857 54.7037 13.5738
RightHand  -0.976873 5.94533 -10.2085
LeftUpLeg  -4.09978 -4.0008 0.305649
LeftLeg  7.54562 -11.4382 -0.208674
LeftFoot  -3.32853 0.257522 -3.39138
LeftToes  4.76866e-008 1.46233e-008 1.30548e-009
521
root  -3.75739 40.5582 0.067662 -2.93478 -58.9367 3.71172
RightUpLeg  7.01141 -4.56237 -0.732311
RightLeg  1.21055 -47.3927 0.504477
RightFoot  -5.40008 -0.335072 5.74363
RightToes  -3.13006e-008 1.75238e-005 3.56266e-009
Spine  -4.63423 4.69029 3.39688
Spine1  5.21545 7.54372 -11.4519
HEad  -17.4359 -29.7022 21.8495
LeftShoulder1  4.015 -8.31679 -27.9086
LeftArm  -8.49541 -7.78895 -50.6223
LeftForeArm  154.993 -75.5588 -140.143
LeftHand  -0.447874 -2.96392 6.46627
RightShoulder  3.16455 8.246 20.5839
RightArm  -42.0097 55.4799 34.6391
RightForeArm  31.5256 51.1765 11.4863
RightHand  -1.62243 6.30364 -16.3972
LeftUpLeg  -5.03529 -4.55331 0.399253
LeftLeg  7.90509 -12.032 -0.257692
LeftFoot  -3.24036 0.260193 -3.40026
LeftToes  4.76866e-008 1.46233e-008 1.30548e-009
